<?xml version="1.0" encoding="iso-8859-1"?>
<!-- Generator: Adobe Illustrator 17.1.0, SVG Export Plug-In . SVG Version: 6.00 Build 0)  -->
<!DOCTYPE svg PUBLIC "-//W3C//DTD SVG 1.1//EN" "http://www.w3.org/Graphics/SVG/1.1/DTD/svg11.dtd">
<svg version="1.1" id="Capa_1" xmlns="http://www.w3.org/2000/svg" xmlns:xlink="http://www.w3.org/1999/xlink" x="0px" y="0px"
	 viewBox="0 0 366.856 366.856" style="enable-background:new 0 0 366.856 366.856;" xml:space="preserve">
<g>
	<path d="M251.613,124.996c0.008-0.422,0.012-0.839,0.012-1.253c0-45.086-36.68-81.767-81.767-81.767
		c-42.736,0-77.92,32.959-81.472,74.792c-7.591-3.063-15.726-4.651-24.036-4.651C28.868,112.117,0,140.984,0,176.468
		c0,35.483,28.868,64.351,64.314,64.351l183.878,0.898c0.012,0,0.024,0,0.037,0c32.207,0,58.409-26.202,58.409-58.409
		C306.637,152.237,282.25,126.755,251.613,124.996z M248.241,226.716l-183.891-0.898C37.139,225.818,15,203.68,15,176.468
		c0-27.212,22.139-49.351,49.351-49.351c9.775,0,19.233,2.864,27.351,8.283c2.382,1.59,5.462,1.686,7.938,0.244
		c2.475-1.441,3.914-4.166,3.707-7.022l-0.036-0.487c-0.112-1.542-0.219-2.998-0.219-4.391c0-36.815,29.951-66.767,66.767-66.767
		s66.767,29.951,66.767,66.767c0,2.407-0.173,5.024-0.529,8.003c-0.269,2.248,0.492,4.497,2.071,6.12
		c1.578,1.623,3.804,2.446,6.061,2.239c1.53-0.14,2.801-0.206,4.001-0.206c23.936,0,43.409,19.473,43.409,43.408
		C291.637,207.239,272.171,226.709,248.241,226.716z"/>
	<path d="M291.4,34.266c-17.012,0-33.695,5.826-46.977,16.403c-3.24,2.581-3.775,7.299-1.194,10.539
		c2.58,3.24,7.299,3.775,10.539,1.194c10.791-8.594,23.804-13.137,37.632-13.137c33.336,0,60.457,27.121,60.457,60.457
		c0,21.422-11.508,41.446-30.034,52.257c-3.578,2.088-4.785,6.68-2.697,10.258c1.394,2.389,3.905,3.721,6.484,3.721
		c1.284,0,2.585-0.33,3.773-1.023c23.114-13.489,37.473-38.477,37.473-65.212C366.856,68.116,333.007,34.266,291.4,34.266z"/>
	<path d="M71.888,252.6c-4.142,0-7.5,3.358-7.5,7.5v18.741c0,4.142,3.358,7.5,7.5,7.5s7.5-3.358,7.5-7.5V260.1
		C79.388,255.958,76.03,252.6,71.888,252.6z"/>
	<path d="M126.175,252.6c-4.142,0-7.5,3.358-7.5,7.5v18.741c0,4.142,3.358,7.5,7.5,7.5s7.5-3.358,7.5-7.5V260.1
		C133.675,255.958,130.317,252.6,126.175,252.6z"/>
	<path d="M180.462,252.6c-4.142,0-7.5,3.358-7.5,7.5v18.741c0,4.142,3.358,7.5,7.5,7.5s7.5-3.358,7.5-7.5V260.1
		C187.962,255.958,184.604,252.6,180.462,252.6z"/>
	<path d="M234.749,252.6c-4.142,0-7.5,3.358-7.5,7.5v18.741c0,4.142,3.358,7.5,7.5,7.5s7.5-3.358,7.5-7.5V260.1
		C242.249,255.958,238.891,252.6,234.749,252.6z"/>
	<path d="M71.888,298.85c-4.142,0-7.5,3.358-7.5,7.5v18.741c0,4.142,3.358,7.5,7.5,7.5s7.5-3.358,7.5-7.5V306.35
		C79.388,302.208,76.03,298.85,71.888,298.85z"/>
	<path d="M126.175,298.85c-4.142,0-7.5,3.358-7.5,7.5v18.741c0,4.142,3.358,7.5,7.5,7.5s7.5-3.358,7.5-7.5V306.35
		C133.675,302.208,130.317,298.85,126.175,298.85z"/>
	<path d="M180.462,298.85c-4.142,0-7.5,3.358-7.5,7.5v18.741c0,4.142,3.358,7.5,7.5,7.5s7.5-3.358,7.5-7.5V306.35
		C187.962,302.208,184.604,298.85,180.462,298.85z"/>
	<path d="M234.749,298.85c-4.142,0-7.5,3.358-7.5,7.5v18.741c0,4.142,3.358,7.5,7.5,7.5s7.5-3.358,7.5-7.5V306.35
		C242.249,302.208,238.891,298.85,234.749,298.85z"/>
</g>
<g>
</g>
<g>
</g>
<g>
</g>
<g>
</g>
<g>
</g>
<g>
</g>
<g>
</g>
<g>
</g>
<g>
</g>
<g>
</g>
<g>
</g>
<g>
</g>
<g>
</g>
<g>
</g>
<g>
</g>
</svg>
