<?xml version="1.0" encoding="iso-8859-1"?>
<!-- Generator: Adobe Illustrator 17.1.0, SVG Export Plug-In . SVG Version: 6.00 Build 0)  -->
<!DOCTYPE svg PUBLIC "-//W3C//DTD SVG 1.1//EN" "http://www.w3.org/Graphics/SVG/1.1/DTD/svg11.dtd">
<svg version="1.1" id="Capa_1" xmlns="http://www.w3.org/2000/svg" xmlns:xlink="http://www.w3.org/1999/xlink" x="0px" y="0px"
	 viewBox="0 0 362.329 362.329" style="enable-background:new 0 0 362.329 362.329;" xml:space="preserve">
<g>
	<g>
		<path d="M288.007,222.967l-207.032-1.011c-39.389,0-71.463-32.074-71.463-71.499s32.074-71.499,71.499-71.499
			c9.67,0,19.126,1.935,27.897,5.661C112.245,37.399,151.729,0,199.784,0c21.703,0,42.727,7.76,59.196,21.851
			c16.286,13.933,27.18,33.19,30.673,54.224c0.679,4.086-2.083,7.949-6.17,8.627c-4.089,0.683-7.948-2.083-8.627-6.169
			c-2.917-17.559-12.018-33.641-25.627-45.284C235.474,21.481,217.914,15,199.784,15c-41.964,0-76.104,34.14-76.104,76.104
			c0,1.604,0.121,3.263,0.25,5.02l0.039,0.538c0.207,2.857-1.231,5.582-3.707,7.023c-2.473,1.44-5.554,1.348-7.938-0.244
			c-9.294-6.204-20.122-9.483-31.313-9.483c-31.153,0-56.499,25.345-56.499,56.499s25.346,56.499,56.499,56.499l207.033,1.011
			c27.428,0,49.772-22.344,49.772-49.809s-22.345-49.809-49.81-49.809c-4.143,0-7.5-3.358-7.5-7.5s3.357-7.5,7.5-7.5
			c35.736,0,64.81,29.073,64.81,64.809S323.744,222.967,288.007,222.967z"/>
	</g>
	<g>
		<path d="M134.133,362.329c-4.143,0-7.5-3.358-7.5-7.5s3.357-7.5,7.5-7.5c5.408,0,9.808-4.4,9.808-9.808s-4.399-9.808-9.808-9.808
			s-9.808,4.4-9.808,9.808c0,4.142-3.357,7.5-7.5,7.5s-7.5-3.358-7.5-7.5c0-13.679,11.129-24.808,24.808-24.808
			s24.808,11.128,24.808,24.808S147.812,362.329,134.133,362.329z"/>
	</g>
	<g>
		<path d="M228.196,362.329c-13.679,0-24.808-11.129-24.808-24.808s11.129-24.808,24.808-24.808s24.808,11.129,24.808,24.808
			S241.875,362.329,228.196,362.329z M228.196,327.714c-5.408,0-9.808,4.4-9.808,9.808s4.399,9.808,9.808,9.808
			s9.808-4.4,9.808-9.808S233.604,327.714,228.196,327.714z"/>
	</g>
	<g>
		<path d="M87.102,299.872c-13.679,0-24.808-11.129-24.808-24.808s11.129-24.808,24.808-24.808s24.808,11.129,24.808,24.808
			S100.781,299.872,87.102,299.872z M87.102,265.256c-5.408,0-9.808,4.4-9.808,9.808s4.399,9.808,9.808,9.808s9.808-4.4,9.808-9.808
			S92.51,265.256,87.102,265.256z"/>
	</g>
	<g>
		<g>
			<path d="M181.165,299.872c-13.679,0-24.808-11.128-24.808-24.808s11.129-24.808,24.808-24.808c4.143,0,7.5,3.358,7.5,7.5
				s-3.357,7.5-7.5,7.5c-5.408,0-9.808,4.4-9.808,9.808s4.399,9.808,9.808,9.808s9.808-4.4,9.808-9.808c0-4.142,3.357-7.5,7.5-7.5
				s7.5,3.358,7.5,7.5C205.972,288.743,194.843,299.872,181.165,299.872z"/>
		</g>
		<g>
			<path d="M275.227,299.872c-13.679,0-24.808-11.129-24.808-24.808s11.129-24.808,24.808-24.808s24.808,11.129,24.808,24.808
				S288.906,299.872,275.227,299.872z M275.227,265.256c-5.408,0-9.808,4.4-9.808,9.808s4.399,9.808,9.808,9.808
				s9.808-4.4,9.808-9.808S280.635,265.256,275.227,265.256z"/>
		</g>
	</g>
</g>
<g>
</g>
<g>
</g>
<g>
</g>
<g>
</g>
<g>
</g>
<g>
</g>
<g>
</g>
<g>
</g>
<g>
</g>
<g>
</g>
<g>
</g>
<g>
</g>
<g>
</g>
<g>
</g>
<g>
</g>
</svg>
